<svg id="Layer_1" data-name="Layer 1" xmlns="http://www.w3.org/2000/svg" viewBox="0 0 708.07 331.32"><defs><style>.cls-1{fill:#f4633a;}.cls-2{fill:#fff;}</style></defs><title>1</title><path class="cls-1" d="M738,538.32h7.52l-2.49,7.1a57.17,57.17,0,0,0,44.72,75.4,62.42,62.42,0,0,1-3.55-69.71l.3-.49.32-.54,3.7-6.43,34-58.9h-52l26.12-45.26H745l-39.91,69.13,0,.08a107,107,0,0,0-12.36,29.62Z" transform="translate(-196.37 -349.48)"/><path class="cls-2" d="M889.54,509.81h0L797,349.48l-26.82,46.46L797,439.49l53,91.84.12.22.69,1.17a62.47,62.47,0,0,1-51,94.11v45a107.5,107.5,0,0,0,89.7-162.06Z" transform="translate(-196.37 -349.48)"/><path class="cls-2" d="M734.49,564.43A62.9,62.9,0,0,1,738,543.65H691.49a107.83,107.83,0,0,0-1.72,12.81l-9.64,2.46,2.19,28.71,9.9,1a105.56,105.56,0,0,0,3.51,12l-7.83,6.17,13.65,25.36L711,629a107.91,107.91,0,0,0,8.07,9.52l-4.68,8.87L737.19,665l7.4-6.73A107.27,107.27,0,0,0,756.32,664l-.67,10,27.86,6.87,4.1-9.3c2.14.18,4.29.31,6.46.37v-45c-.41,0-.83,0-1.24-.06A62.55,62.55,0,0,1,734.49,564.43Z" transform="translate(-196.37 -349.48)"/><rect class="cls-2" x="1.26" y="236.25" width="408.84" height="3.62"/><path class="cls-2" d="M350.56,640.71v.35H340.15a6.66,6.66,0,0,1-6.66-6.65V617.78H328v16.63a12.15,12.15,0,0,0,12.14,12.13H356V627.6h-5.41Z" transform="translate(-196.37 -349.48)"/><path class="cls-2" d="M228.56,634.71v-7.12h-5.48v6.19h0v.63c0,.11,0,.23,0,.34v9.48a6.66,6.66,0,0,1-6.65,6.66H208.5a6.67,6.67,0,0,1-6.66-6.66v-4.5a6.67,6.67,0,0,1,6.3-6.65V627.6a12.15,12.15,0,0,0-11.77,12.13v4.5a12.14,12.14,0,0,0,12.13,12.13h7.93a12.17,12.17,0,0,0,12.08-11.22l0-.57.5.29a12.11,12.11,0,0,0,6.14,1.68h29.47v-5.48H235.19A6.63,6.63,0,0,1,228.56,634.71Z" transform="translate(-196.37 -349.48)"/><path class="cls-2" d="M485.89,640.71v.35H475.47a6.66,6.66,0,0,1-6.66-6.65v-6.82h-5.47v6.82a12.09,12.09,0,0,0,1.63,6.05l0,.09a12.2,12.2,0,0,0,10.45,6h15.82V627.59h-5.4Z" transform="translate(-196.37 -349.48)"/><path class="cls-2" d="M422.47,634.41V627.6H407.88a9.47,9.47,0,0,0,0,18.94h5.49v-5.48h-5.49a4,4,0,1,1,0-8H417v1.34a12.14,12.14,0,0,0,12.13,12.13h36.18v-5.48H429.13A6.66,6.66,0,0,1,422.47,634.41Z" transform="translate(-196.37 -349.48)"/><path class="cls-2" d="M568.31,627.59h-5.4V641h-5.25a6.66,6.66,0,0,1-6.66-6.65V633h.07v-5.4H530.25v16.64a6.66,6.66,0,0,1-6.66,6.66H515.2a6.67,6.67,0,0,1-6.66-6.66v-4.5a6.67,6.67,0,0,1,6.3-6.65V627.6a12.15,12.15,0,0,0-11.77,12.13v4.5a12.14,12.14,0,0,0,12.13,12.13h8.39a12.15,12.15,0,0,0,12.14-12.13V633h9.79v1.38a12.15,12.15,0,0,0,12.14,12.13h10.65Z" transform="translate(-196.37 -349.48)"/><rect class="cls-2" x="355.41" y="268.3" width="13.58" height="5.4"/><rect class="cls-2" x="340.6" y="303.03" width="13.58" height="5.4"/><polygon class="cls-2" points="279.24 308.51 287.06 308.51 287.42 308.51 287.42 308.86 287.42 314.62 292.82 314.62 292.82 308.86 292.82 303.11 279.24 303.11 279.24 308.51"/><rect class="cls-2" x="254.96" y="303.03" width="13.58" height="5.4"/><rect class="cls-2" x="323.52" y="278.12" width="5.4" height="5.4"/><polygon class="cls-2" points="254.13 267.95 254.13 262.19 248.73 262.19 248.73 267.95 248.73 268.3 248.37 268.3 240.55 268.3 240.55 273.7 254.13 273.7 254.13 267.95"/><rect class="cls-2" x="142.97" y="268.3" width="13.58" height="5.4"/><path class="cls-2" d="M575.75,644.23a6.67,6.67,0,0,1-6.66,6.66h-2.53v5.47h2.53a12.14,12.14,0,0,0,12.13-12.13V627.59h-5.47Z" transform="translate(-196.37 -349.48)"/><rect class="cls-2" x="393.68" y="268.74" width="5.4" height="28.59"/><path class="cls-2" d="M366.06,644.23a6.67,6.67,0,0,1-6.66,6.66h-2.52v5.47h2.52a12.14,12.14,0,0,0,12.13-12.13V627.46h-5.47Z" transform="translate(-196.37 -349.48)"/><rect class="cls-2" x="184.87" y="268.3" width="5.4" height="29.03"/><path class="cls-2" d="M310.87,640.69v.36H300.45a6.67,6.67,0,0,1-6.66-6.66v-6.8H279.2a9.47,9.47,0,0,0,0,18.94h5.5v-5.47h-5.5a4,4,0,1,1,0-8h9.11v11.16a6.66,6.66,0,0,1-6.66,6.66h-1.92v5.47h1.92a12.16,12.16,0,0,0,12.09-11.26l0-.57.5.29a12,12,0,0,0,6.17,1.7h15.82V627.59h-5.4Z" transform="translate(-196.37 -349.48)"/><rect class="cls-2" x="103.27" y="268.3" width="13.58" height="5.4"/><path class="cls-2" d="M366.09,617.26h5.48a6.67,6.67,0,0,1,6.65-6.3h17.72v-5.47H378.22A12.15,12.15,0,0,0,366.09,617.26Z" transform="translate(-196.37 -349.48)"/><path class="cls-2" d="M587.49,605.49a12.15,12.15,0,0,0-12.13,11.77h5.48a6.67,6.67,0,0,1,6.65-6.3H605.2v-5.47Z" transform="translate(-196.37 -349.48)"/><path class="cls-2" d="M240.75,470.23H197.63v91.38h14.72V485.15h28.4a18.18,18.18,0,0,1,18.16,18.16v17.86H226.27v14.72h32.64v25.72h14.92v-58.3A33.12,33.12,0,0,0,240.75,470.23Z" transform="translate(-196.37 -349.48)"/><path class="cls-2" d="M465.21,470.23H422.09v91.38h14.72V485.15h28.4a18.18,18.18,0,0,1,18.16,18.16v17.86H450.73v14.72h32.64v25.72h14.92v-58.3A33.12,33.12,0,0,0,465.21,470.23Z" transform="translate(-196.37 -349.48)"/><path class="cls-2" d="M605.2,469.37H533.65V484.1h33.72a32.85,32.85,0,0,0-5.46,18.15v58.68h14.92V502.25a18.17,18.17,0,0,1,18.1-18.15H605.2Z" transform="translate(-196.37 -349.48)"/><path class="cls-2" d="M385.82,502.82a33.11,33.11,0,0,0-33.07-32.59H309.63v91.38h14.72V485.15h28.4a17.91,17.91,0,1,1,0,35.82H337.1v14.92h15.65a33.1,33.1,0,0,0,33.07-32.58h0v-.49Z" transform="translate(-196.37 -349.48)"/></svg>