<svg id="Layer_3" data-name="Layer 3" xmlns="http://www.w3.org/2000/svg" viewBox="0 0 708.07 331.32"><defs><style>.cls-1{fill:#f4633a;}.cls-2{fill:#173460;}.cls-3{fill:#fff;}</style></defs><title>8</title><path class="cls-1" d="M738,1619.55h7.52l-2.49,7.09a57.18,57.18,0,0,0,44.72,75.41,62.42,62.42,0,0,1-3.55-69.71l.3-.49.32-.55,3.7-6.42,34-58.91h-52l26.12-45.25H745l-39.91,69.13,0,.07a107.09,107.09,0,0,0-12.36,29.63Z" transform="translate(-196.37 -1430.7)"/><path class="cls-2" d="M889.54,1591h0L797,1430.7l-26.82,46.46L797,1520.72l53,91.84.12.21.69,1.17a62.49,62.49,0,0,1-51,94.12v45a107.49,107.49,0,0,0,89.7-162Z" transform="translate(-196.37 -1430.7)"/><path class="cls-3" d="M734.49,1645.66a62.86,62.86,0,0,1,3.53-20.78H691.49a107.67,107.67,0,0,0-1.72,12.8l-9.64,2.47,2.19,28.71,9.9,1a105,105,0,0,0,3.51,12L687.9,1688l13.65,25.35,9.49-3.14a107.91,107.91,0,0,0,8.07,9.52l-4.68,8.87,22.76,17.64,7.4-6.73a107.27,107.27,0,0,0,11.73,5.65l-.67,10,27.86,6.86,4.1-9.3c2.14.19,4.29.32,6.46.37v-45l-1.24-.07A62.54,62.54,0,0,1,734.49,1645.66Z" transform="translate(-196.37 -1430.7)"/><rect class="cls-2" x="1.26" y="236.25" width="408.84" height="3.62"/><path class="cls-2" d="M350.56,1721.93v.36H340.15a6.67,6.67,0,0,1-6.66-6.66V1699H328v16.63a12.15,12.15,0,0,0,12.14,12.13H356v-18.94h-5.41Z" transform="translate(-196.37 -1430.7)"/><path class="cls-2" d="M228.56,1715.94v-7.12h-5.48V1715h0v.62c0,.12,0,.23,0,.35v9.47a6.66,6.66,0,0,1-6.65,6.66H208.5a6.67,6.67,0,0,1-6.66-6.66V1721a6.67,6.67,0,0,1,6.3-6.65v-5.47A12.13,12.13,0,0,0,196.37,1721v4.5a12.14,12.14,0,0,0,12.13,12.13h7.93a12.17,12.17,0,0,0,12.08-11.22l0-.57.5.29a12.11,12.11,0,0,0,6.14,1.68h29.47v-5.47H235.19A6.64,6.64,0,0,1,228.56,1715.94Z" transform="translate(-196.37 -1430.7)"/><path class="cls-2" d="M485.89,1721.93v.36H475.47a6.67,6.67,0,0,1-6.66-6.66v-6.81h-5.47v6.81a12,12,0,0,0,1.63,6l0,.09a12.18,12.18,0,0,0,10.45,6h15.82v-18.94h-5.4Z" transform="translate(-196.37 -1430.7)"/><path class="cls-2" d="M422.47,1715.63v-6.81H407.88a9.47,9.47,0,1,0,0,18.94h5.49v-5.47h-5.49a4,4,0,0,1,0-8H417v1.34a12.14,12.14,0,0,0,12.13,12.13h36.18v-5.47H429.13A6.67,6.67,0,0,1,422.47,1715.63Z" transform="translate(-196.37 -1430.7)"/><path class="cls-2" d="M568.31,1708.82h-5.4v13.43h-5.25a6.66,6.66,0,0,1-6.66-6.66v-1.37h.07v-5.4H530.25v16.63a6.66,6.66,0,0,1-6.66,6.66H515.2a6.67,6.67,0,0,1-6.66-6.66V1721a6.67,6.67,0,0,1,6.3-6.65v-5.47A12.13,12.13,0,0,0,503.07,1721v4.5a12.14,12.14,0,0,0,12.13,12.13h8.39a12.15,12.15,0,0,0,12.14-12.13v-11.23h9.79v1.37a12.15,12.15,0,0,0,12.14,12.13h10.65Z" transform="translate(-196.37 -1430.7)"/><rect class="cls-2" x="355.41" y="268.3" width="13.58" height="5.4"/><rect class="cls-2" x="340.6" y="303.03" width="13.58" height="5.4"/><polygon class="cls-2" points="279.24 308.51 287.06 308.51 287.42 308.51 287.42 308.86 287.42 314.62 292.82 314.62 292.82 308.86 292.82 303.11 279.24 303.11 279.24 308.51"/><rect class="cls-2" x="254.96" y="303.03" width="13.58" height="5.4"/><rect class="cls-2" x="323.52" y="278.12" width="5.4" height="5.4"/><polygon class="cls-2" points="254.13 267.95 254.13 262.19 248.73 262.19 248.73 267.95 248.73 268.3 248.37 268.3 240.55 268.3 240.55 273.7 254.13 273.7 254.13 267.95"/><rect class="cls-2" x="142.97" y="268.3" width="13.58" height="5.4"/><path class="cls-2" d="M575.75,1725.45a6.67,6.67,0,0,1-6.66,6.66h-2.53v5.47h2.53a12.14,12.14,0,0,0,12.13-12.13v-16.63h-5.47Z" transform="translate(-196.37 -1430.7)"/><rect class="cls-2" x="393.68" y="268.74" width="5.4" height="28.59"/><path class="cls-2" d="M366.06,1725.45a6.67,6.67,0,0,1-6.66,6.66h-2.52v5.47h2.52a12.14,12.14,0,0,0,12.13-12.13v-16.77h-5.47Z" transform="translate(-196.37 -1430.7)"/><rect class="cls-2" x="184.87" y="268.3" width="5.4" height="29.03"/><path class="cls-2" d="M310.87,1721.92v.35H300.45a6.66,6.66,0,0,1-6.66-6.65v-6.8H279.2a9.47,9.47,0,1,0,0,18.94h5.5v-5.48h-5.5a4,4,0,1,1,0-8h9.11v11.16a6.66,6.66,0,0,1-6.66,6.66h-1.92v5.47h1.92a12.16,12.16,0,0,0,12.09-11.25l0-.58.5.3a12.14,12.14,0,0,0,6.17,1.7h15.82v-18.93h-5.4Z" transform="translate(-196.37 -1430.7)"/><rect class="cls-2" x="103.27" y="268.3" width="13.58" height="5.4"/><path class="cls-2" d="M366.09,1698.49h5.48a6.68,6.68,0,0,1,6.65-6.31h17.72v-5.47H378.22A12.15,12.15,0,0,0,366.09,1698.49Z" transform="translate(-196.37 -1430.7)"/><path class="cls-2" d="M587.49,1686.71a12.15,12.15,0,0,0-12.13,11.78h5.48a6.67,6.67,0,0,1,6.65-6.31H605.2v-5.47Z" transform="translate(-196.37 -1430.7)"/><path class="cls-2" d="M240.75,1551.45H197.63v91.38h14.72v-76.46h28.4a18.19,18.19,0,0,1,18.16,18.16v17.86H226.27v14.73h32.64v25.71h14.92v-58.3A33.12,33.12,0,0,0,240.75,1551.45Z" transform="translate(-196.37 -1430.7)"/><path class="cls-2" d="M465.21,1551.45H422.09v91.38h14.72v-76.46h28.4a18.19,18.19,0,0,1,18.16,18.16v17.86H450.73v14.73h32.64v25.71h14.92v-58.3A33.12,33.12,0,0,0,465.21,1551.45Z" transform="translate(-196.37 -1430.7)"/><path class="cls-2" d="M605.2,1550.6H533.65v14.72h33.72a32.87,32.87,0,0,0-5.46,18.15v58.69h14.92v-58.69a18.17,18.17,0,0,1,18.1-18.15H605.2Z" transform="translate(-196.37 -1430.7)"/><path class="cls-2" d="M385.82,1584a33.11,33.11,0,0,0-33.07-32.59H309.63v91.38h14.72v-76.46h28.4a17.91,17.91,0,1,1,0,35.82H337.1v14.93h15.65a33.11,33.11,0,0,0,33.07-32.59h0V1584Z" transform="translate(-196.37 -1430.7)"/></svg>