<svg id="Layer_1" data-name="Layer 1" xmlns="http://www.w3.org/2000/svg" viewBox="0 0 224.31 331.32"><defs><style>.cls-1{fill:#f4633a;}.cls-2{fill:#fff;}</style></defs><title>icon2</title><path class="cls-1" d="M738,538.32h7.52l-2.49,7.1a57.17,57.17,0,0,0,44.72,75.4,62.42,62.42,0,0,1-3.55-69.71l.3-.49.32-.54,3.7-6.43,34-58.9h-52l26.12-45.26H745l-39.91,69.13,0,.08a107,107,0,0,0-12.36,29.62Z" transform="translate(-680.13 -349.48)"/><path class="cls-2" d="M889.54,509.81h0L797,349.48l-26.82,46.46L797,439.49l53,91.84.12.22.69,1.17a62.47,62.47,0,0,1-51,94.11v45a107.5,107.5,0,0,0,89.7-162.06Z" transform="translate(-680.13 -349.48)"/><path class="cls-2" d="M734.49,564.43A62.9,62.9,0,0,1,738,543.65H691.49a107.83,107.83,0,0,0-1.72,12.81l-9.64,2.46,2.19,28.71,9.9,1a105.56,105.56,0,0,0,3.51,12l-7.83,6.17,13.65,25.36L711,629a107.91,107.91,0,0,0,8.07,9.52l-4.68,8.87L737.19,665l7.4-6.73A107.27,107.27,0,0,0,756.32,664l-.67,10,27.86,6.87,4.1-9.3c2.14.18,4.29.31,6.46.37v-45c-.41,0-.83,0-1.24-.06A62.55,62.55,0,0,1,734.49,564.43Z" transform="translate(-680.13 -349.48)"/></svg>