<svg id="Layer_3" data-name="Layer 3" xmlns="http://www.w3.org/2000/svg" viewBox="0 0 224.31 331.32"><defs><style>.cls-1{fill:#f4633a;}.cls-2{fill:#173460;}.cls-3{fill:#fff;}</style></defs><title>services-logoo</title><path class="cls-1" d="M738,1619.55h7.52l-2.49,7.09a57.18,57.18,0,0,0,44.72,75.41,62.42,62.42,0,0,1-3.55-69.71l.3-.49.32-.55,3.7-6.42,34-58.91h-52l26.12-45.25H745l-39.91,69.13,0,.07a107.09,107.09,0,0,0-12.36,29.63Z" transform="translate(-680.13 -1430.7)"/><path class="cls-2" d="M889.54,1591h0L797,1430.7l-26.82,46.46L797,1520.72l53,91.84.12.21.69,1.17a62.49,62.49,0,0,1-51,94.12v45a107.49,107.49,0,0,0,89.7-162Z" transform="translate(-680.13 -1430.7)"/><path class="cls-3" d="M734.49,1645.66a62.86,62.86,0,0,1,3.53-20.78H691.49a107.67,107.67,0,0,0-1.72,12.8l-9.64,2.47,2.19,28.71,9.9,1a105,105,0,0,0,3.51,12L687.9,1688l13.65,25.35,9.49-3.14a107.91,107.91,0,0,0,8.07,9.52l-4.68,8.87,22.76,17.64,7.4-6.73a107.27,107.27,0,0,0,11.73,5.65l-.67,10,27.86,6.86,4.1-9.3c2.14.19,4.29.32,6.46.37v-45l-1.24-.07A62.54,62.54,0,0,1,734.49,1645.66Z" transform="translate(-680.13 -1430.7)"/></svg>